<?xml version="1.0" encoding="utf-8"?>
<!-- Generator: Adobe Illustrator 16.0.0, SVG Export Plug-In . SVG Version: 6.00 Build 0)  -->
<!DOCTYPE svg PUBLIC "-//W3C//DTD SVG 1.1//EN" "http://www.w3.org/Graphics/SVG/1.1/DTD/svg11.dtd">
<svg version="1.1" xmlns="http://www.w3.org/2000/svg" xmlns:xlink="http://www.w3.org/1999/xlink" x="0px" y="0px" width="256px"
	 height="256px" viewBox="0 0 256 256" enable-background="new 0 0 256 256" xml:space="preserve">
<g id="Calque_1">
	<g>
		<path fill="#BE1622" d="M130.75,71.333c-1.084-3.333-1.667-7.667-5.083-9.5l0.356,0.181c-6.023-6.617-16.883-9.615-25.405-7.44
			c-8.851,2.258-16.668,8.412-22.093,15.619c-10.833,14.391-13.626,34.283-9.046,51.5c3.928,14.768,13.325,25.165,25.986,33.198
			c12.321,7.819,26.28,14.604,33.12,28.284l0.579,0.576c-4.336-16.762,25.434-19.652,33.525-28.322
			c10.982-11.561,18.207-29.192,20.809-44.51c2.313-13.583-1.445-30.347-12.717-39.595c-11.85-9.538-29.479-8.092-39.307,3.757
			c-4.624,5.78-5.491,12.428-7.514,19.075"/>
	</g>
	<g>
		<g>
			<path fill="#BE1622" d="M-23.5,156.83c3.224,0,3.224-5,0-5S-26.724,156.83-23.5,156.83L-23.5,156.83z"/>
		</g>
	</g>
</g>
<g id="Calque_2">
</g>
</svg>
